# Blender v2.76 (sub 0) OBJ File: 'rubik.blend'
# www.blender.org
v 0.500000 0.429289 0.429289
v 0.429289 0.500000 0.429289
v 0.429289 0.429289 0.500000
v 0.479289 0.479289 0.429289
v 0.470114 0.470114 0.470114
v 0.429289 0.479289 0.479289
v 0.479289 0.429289 0.479289
v 0.500000 0.429289 -0.429289
v 0.429289 0.429289 -0.500000
v 0.429289 0.500000 -0.429289
v 0.479289 0.429289 -0.479289
v 0.470114 0.470114 -0.470114
v 0.429289 0.479289 -0.479289
v 0.479289 0.479289 -0.429289
v -0.429289 0.429289 -0.500000
v -0.500000 0.429289 -0.429289
v -0.429289 0.500000 -0.429289
v -0.479289 0.429289 -0.479289
v -0.470114 0.470114 -0.470114
v -0.479289 0.479289 -0.429289
v -0.429289 0.479289 -0.479289
v -0.429289 0.429289 0.500000
v -0.429289 0.500000 0.429289
v -0.500000 0.429289 0.429289
v -0.429289 0.479289 0.479289
v -0.470114 0.470114 0.470114
v -0.479289 0.479289 0.429289
v -0.479289 0.429289 0.479289
v 0.429290 -0.429289 0.500000
v 0.429289 -0.500000 0.429289
v 0.500000 -0.429289 0.429289
v 0.429290 -0.479289 0.479289
v 0.470114 -0.470114 0.470114
v 0.479289 -0.479289 0.429289
v 0.479290 -0.429289 0.479289
v 0.429289 -0.429289 -0.500000
v 0.500000 -0.429289 -0.429290
v 0.429289 -0.500000 -0.429290
v 0.479289 -0.429289 -0.479290
v 0.470114 -0.470114 -0.470114
v 0.479289 -0.479289 -0.429290
v 0.429289 -0.479289 -0.479290
v -0.500000 -0.429289 -0.429289
v -0.429290 -0.429289 -0.500000
v -0.429290 -0.500000 -0.429289
v -0.479290 -0.429289 -0.479289
v -0.470114 -0.470114 -0.470114
v -0.429290 -0.479289 -0.479289
v -0.479290 -0.479289 -0.429289
v -0.500000 -0.429289 0.429289
v -0.429289 -0.500000 0.429289
v -0.429289 -0.429289 0.500000
v -0.479289 -0.479289 0.429289
v -0.470114 -0.470114 0.470114
v -0.429289 -0.479289 0.479289
v -0.479289 -0.429289 0.479289
vt 0.714645 0.285355
vt 0.285355 0.285355
vt 0.285355 0.714645
vt 0.714644 0.714645
vt 0.714645 0.260355
vt 0.735057 0.264943
vt 0.714645 0.739645
vt 0.735057 0.735057
vt 0.739645 0.285355
vt 0.260355 0.285355
vt 0.264943 0.264943
vt 0.285355 0.260355
vt 0.260355 0.714645
vt 0.264943 0.735057
vt 0.739645 0.714645
vt 0.285355 0.739645
vn 0.179400 0.179400 0.967300
vn -0.179400 0.179400 0.967300
vn -0.179400 -0.179400 0.967300
vn 0.179400 -0.179400 -0.967300
vn -0.179400 -0.179400 -0.967300
vn -0.179400 0.179400 -0.967300
vn -0.967300 -0.179400 -0.179400
vn -0.967300 -0.179400 0.179400
vn -0.967300 0.179400 0.179400
vn -0.179400 -0.967300 0.179400
vn -0.179400 -0.967300 -0.179400
vn 0.179400 -0.967300 -0.179400
vn 0.967300 -0.179400 0.179400
vn 0.967300 -0.179400 -0.179400
vn 0.967300 0.179400 -0.179400
vn 0.967300 0.179400 0.179400
vn 0.699300 0.699300 0.147900
vn 0.577300 0.577300 0.577300
vn 0.179400 0.967300 0.179400
vn 0.147900 0.699300 0.699300
vn 0.699300 0.147900 0.699300
vn 0.699300 0.147900 -0.699300
vn 0.577300 0.577300 -0.577300
vn 0.179400 0.179400 -0.967300
vn 0.147900 0.699300 -0.699300
vn 0.179400 0.967300 -0.179400
vn 0.699300 0.699300 -0.147900
vn -0.699300 0.147900 -0.699300
vn -0.577300 0.577300 -0.577300
vn -0.967300 0.179400 -0.179400
vn -0.699300 0.699300 -0.147900
vn -0.179400 0.967300 -0.179400
vn -0.147900 0.699300 -0.699300
vn -0.147900 0.699300 0.699300
vn -0.577300 0.577300 0.577300
vn -0.179400 0.967300 0.179400
vn -0.699300 0.699300 0.147900
vn -0.699300 0.147900 0.699300
vn 0.179400 -0.179400 0.967300
vn 0.147900 -0.699300 0.699300
vn 0.577300 -0.577300 0.577300
vn 0.179400 -0.967300 0.179400
vn 0.699300 -0.699300 0.147900
vn 0.699300 -0.147900 0.699300
vn 0.699300 -0.147900 -0.699300
vn 0.577300 -0.577300 -0.577300
vn 0.699300 -0.699300 -0.147900
vn 0.147900 -0.699300 -0.699300
vn -0.699300 -0.147900 -0.699300
vn -0.577300 -0.577300 -0.577300
vn -0.147900 -0.699300 -0.699300
vn -0.699300 -0.699300 -0.147900
vn -0.699300 -0.699300 0.147900
vn -0.577300 -0.577300 0.577300
vn -0.147900 -0.699300 0.699300
vn -0.699300 -0.147900 0.699300
f 3/1/1 22/2/2 52/3/3
f 36/4/4 44/3/5 15/2/6
f 43/3/7 50/4/8 24/1/9
f 51/3/10 45/2/11 38/1/12
f 31/4/13 37/3/14 8/2/15
f 1/1/16 4/5/17 5/6/18
f 2/4/19 6/7/20 5/8/18
f 3/1/1 7/9/21 5/6/18
f 8/2/15 11/10/22 12/11/23
f 9/1/24 13/5/25 12/6/23
f 10/1/26 14/9/27 12/6/23
f 15/2/6 18/10/28 19/11/29
f 16/2/30 20/12/31 19/11/29
f 17/2/32 21/12/33 19/11/29
f 22/2/2 25/12/34 26/11/35
f 23/3/36 27/13/37 26/14/35
f 24/1/9 28/9/38 26/6/35
f 29/4/39 32/7/40 33/8/41
f 30/4/42 34/15/43 33/8/41
f 31/4/13 35/15/44 33/8/41
f 36/4/4 39/15/45 40/8/46
f 37/3/14 41/16/47 40/14/46
f 38/1/12 42/5/48 40/6/46
f 43/3/7 46/13/49 47/14/50
f 44/3/5 48/16/51 47/14/50
f 45/2/11 49/10/52 47/11/50
f 50/4/8 53/7/53 54/8/54
f 51/3/10 55/16/55 54/14/54
f 52/3/3 56/13/56 54/14/54
f 1/1/16 8/2/15 14/12/27
f 4/15/17 14/9/27 10/1/26
f 23/3/36 25/16/34 6/7/20
f 6/5/20 25/12/34 22/2/2
f 29/4/39 35/15/44 7/9/21
f 35/15/44 31/4/13 1/1/16
f 9/1/24 15/2/6 21/12/33
f 21/12/33 17/2/32 10/1/26
f 37/3/14 39/13/45 11/10/22
f 39/15/45 36/4/4 9/1/24
f 24/1/9 27/5/37 20/12/31
f 27/13/37 23/3/36 17/2/32
f 44/3/5 46/13/49 18/10/28
f 46/13/49 43/3/7 16/2/30
f 24/1/9 50/4/8 56/15/56
f 28/10/38 56/13/56 52/3/3
f 30/4/42 38/1/12 41/9/47
f 41/16/47 37/3/14 31/4/13
f 52/3/3 55/16/55 32/7/40
f 55/16/55 51/3/10 30/4/42
f 38/1/12 45/2/11 48/12/51
f 42/7/48 48/16/51 44/3/5
f 51/3/10 53/13/53 49/10/52
f 53/7/53 50/4/8 43/3/7
f 2/4/19 10/1/26 17/2/32
f 29/4/39 3/1/1 52/3/3
f 9/1/24 36/4/4 15/2/6
f 16/2/30 43/3/7 24/1/9
f 30/4/42 51/3/10 38/1/12
f 1/1/16 31/4/13 8/2/15
f 7/9/21 1/1/16 5/6/18
f 4/15/17 2/4/19 5/8/18
f 6/5/20 3/1/1 5/6/18
f 14/12/27 8/2/15 12/11/23
f 11/9/22 9/1/24 12/6/23
f 13/5/25 10/1/26 12/6/23
f 21/12/33 15/2/6 19/11/29
f 18/10/28 16/2/30 19/11/29
f 20/10/31 17/2/32 19/11/29
f 28/10/38 22/2/2 26/11/35
f 25/16/34 23/3/36 26/14/35
f 27/5/37 24/1/9 26/6/35
f 35/15/44 29/4/39 33/8/41
f 32/7/40 30/4/42 33/8/41
f 34/7/43 31/4/13 33/8/41
f 42/7/48 36/4/4 40/8/46
f 39/13/45 37/3/14 40/14/46
f 41/9/47 38/1/12 40/6/46
f 49/16/52 43/3/7 47/14/50
f 46/13/49 44/3/5 47/14/50
f 48/12/51 45/2/11 47/11/50
f 56/15/56 50/4/8 54/8/54
f 53/13/53 51/3/10 54/14/54
f 55/16/55 52/3/3 54/14/54
f 4/5/17 1/1/16 14/12/27
f 2/4/19 4/15/17 10/1/26
f 2/4/19 23/3/36 6/7/20
f 3/1/1 6/5/20 22/2/2
f 3/1/1 29/4/39 7/9/21
f 7/9/21 35/15/44 1/1/16
f 13/5/25 9/1/24 21/12/33
f 13/5/25 21/12/33 10/1/26
f 8/2/15 37/3/14 11/10/22
f 11/9/22 39/15/45 9/1/24
f 16/2/30 24/1/9 20/12/31
f 20/10/31 27/13/37 17/2/32
f 15/2/6 44/3/5 18/10/28
f 18/10/28 46/13/49 16/2/30
f 28/9/38 24/1/9 56/15/56
f 22/2/2 28/10/38 52/3/3
f 34/15/43 30/4/42 41/9/47
f 34/7/43 41/16/47 31/4/13
f 29/4/39 52/3/3 32/7/40
f 32/7/40 55/16/55 30/4/42
f 42/5/48 38/1/12 48/12/51
f 36/4/4 42/7/48 44/3/5
f 45/2/11 51/3/10 49/10/52
f 49/16/52 53/7/53 43/3/7
f 23/3/36 2/4/19 17/2/32
