# Blender v2.76 (sub 0) OBJ File: 'rubik.blend'
# www.blender.org
v 0.500000 0.429289 0.429289
v 0.429289 0.500000 0.429289
v 0.429289 0.429289 0.500000
v 0.479289 0.479289 0.429289
v 0.470114 0.470114 0.470114
v 0.429289 0.479289 0.479289
v 0.479289 0.429289 0.479289
v 0.500000 0.429289 -0.429289
v 0.429289 0.429289 -0.500000
v 0.429289 0.500000 -0.429289
v 0.479289 0.429289 -0.479289
v 0.470114 0.470114 -0.470114
v 0.429289 0.479289 -0.479289
v 0.479289 0.479289 -0.429289
v -0.429289 0.429289 -0.500000
v -0.500000 0.429289 -0.429289
v -0.429289 0.500000 -0.429289
v -0.479289 0.429289 -0.479289
v -0.470114 0.470114 -0.470114
v -0.479289 0.479289 -0.429289
v -0.429289 0.479289 -0.479289
v -0.429289 0.429289 0.500000
v -0.429289 0.500000 0.429289
v -0.500000 0.429289 0.429289
v -0.429289 0.479289 0.479289
v -0.470114 0.470114 0.470114
v -0.479289 0.479289 0.429289
v -0.479289 0.429289 0.479289
v 0.429290 -0.429289 0.500000
v 0.429289 -0.500000 0.429289
v 0.500000 -0.429289 0.429289
v 0.429290 -0.479289 0.479289
v 0.470114 -0.470114 0.470114
v 0.479289 -0.479289 0.429289
v 0.479290 -0.429289 0.479289
v 0.429289 -0.429289 -0.500000
v 0.500000 -0.429289 -0.429290
v 0.429289 -0.500000 -0.429290
v 0.479289 -0.429289 -0.479290
v 0.470114 -0.470114 -0.470114
v 0.479289 -0.479289 -0.429290
v 0.429289 -0.479289 -0.479290
v -0.500000 -0.429289 -0.429289
v -0.429290 -0.429289 -0.500000
v -0.429290 -0.500000 -0.429289
v -0.479290 -0.429289 -0.479289
v -0.470114 -0.470114 -0.470114
v -0.429290 -0.479289 -0.479289
v -0.479290 -0.479289 -0.429289
v -0.500000 -0.429289 0.429289
v -0.429289 -0.500000 0.429289
v -0.429289 -0.429289 0.500000
v -0.479289 -0.479289 0.429289
v -0.470114 -0.470114 0.470114
v -0.429289 -0.479289 0.479289
v -0.479289 -0.429289 0.479289
vt 0.714645 0.285355
vt 0.285355 0.285355
vt 0.285355 0.714645
vt 0.714644 0.714645
vt 0.714645 0.260355
vt 0.735057 0.264943
vt 0.714645 0.739645
vt 0.735057 0.735057
vt 0.739645 0.285355
vt 0.260355 0.285355
vt 0.264943 0.264943
vt 0.285355 0.260355
vt 0.260355 0.714645
vt 0.264943 0.735057
vt 0.739645 0.714645
vt 0.285355 0.739645
vn 0.000000 -0.000000 1.000000
vn -0.000000 -0.000000 -1.000000
vn -1.000000 0.000000 0.000000
vn 0.000000 -1.000000 0.000000
vn 1.000000 -0.000000 -0.000000
vn 0.886500 0.367200 0.281700
vn 0.281700 0.886500 0.367200
vn 0.367200 0.281700 0.886500
vn 0.886500 0.281700 -0.367200
vn 0.281700 0.367200 -0.886500
vn 0.367200 0.886500 -0.281700
vn -0.367200 0.281700 -0.886500
vn -0.886500 0.367200 -0.281700
vn -0.281700 0.886500 -0.367200
vn -0.281700 0.367200 0.886500
vn -0.367200 0.886500 0.281700
vn -0.886500 0.281700 0.367200
vn 0.281700 -0.367200 0.886500
vn 0.367200 -0.886500 0.281700
vn 0.886500 -0.281700 0.367200
vn 0.367200 -0.281700 -0.886500
vn 0.886500 -0.367200 -0.281700
vn 0.281700 -0.886500 -0.367200
vn -0.886500 -0.281700 -0.367200
vn -0.281700 -0.367200 -0.886500
vn -0.367200 -0.886500 -0.281700
vn -0.886500 -0.367200 0.281700
vn -0.281700 -0.886500 0.367200
vn -0.367200 -0.281700 0.886500
vn 0.923900 0.382700 0.000000
vn 0.382700 0.923900 0.000000
vn 0.000000 0.923900 0.382700
vn 0.000000 0.382700 0.923900
vn 0.382700 -0.000000 0.923900
vn 0.923900 -0.000000 0.382700
vn -0.000000 0.382700 -0.923900
vn -0.000000 0.923900 -0.382700
vn 0.923900 -0.000000 -0.382700
vn 0.382700 0.000000 -0.923900
vn -0.923900 0.382700 0.000000
vn -0.382700 0.923900 0.000000
vn -0.382700 -0.000000 -0.923900
vn -0.923900 0.000000 -0.382700
vn -0.923900 0.000000 0.382700
vn -0.382700 -0.000000 0.923900
vn 0.382700 -0.923900 -0.000000
vn 0.923900 -0.382700 -0.000000
vn 0.000000 -0.382700 0.923900
vn 0.000000 -0.923900 0.382700
vn -0.000000 -0.923900 -0.382700
vn -0.000000 -0.382700 -0.923900
vn -0.382700 -0.923900 0.000000
vn -0.923900 -0.382700 0.000000
vn 0.000000 1.000000 0.000000
vn 0.886500 0.281700 0.367200
vn 0.367200 0.886500 0.281700
vn 0.281700 0.367200 0.886500
vn 0.886500 0.367200 -0.281700
vn 0.367200 0.281700 -0.886500
vn 0.281700 0.886500 -0.367200
vn -0.281700 0.367200 -0.886500
vn -0.886500 0.281700 -0.367200
vn -0.367200 0.886500 -0.281700
vn -0.367200 0.281700 0.886500
vn -0.281700 0.886500 0.367200
vn -0.886500 0.367200 0.281700
vn 0.367200 -0.281700 0.886500
vn 0.281700 -0.886500 0.367200
vn 0.886500 -0.367200 0.281700
vn 0.281700 -0.367200 -0.886500
vn 0.886500 -0.281700 -0.367200
vn 0.367200 -0.886500 -0.281700
vn -0.886500 -0.367200 -0.281700
vn -0.367200 -0.281700 -0.886500
vn -0.281700 -0.886500 -0.367200
vn -0.886500 -0.281700 0.367200
vn -0.367200 -0.886500 0.281700
vn -0.281700 -0.367200 0.886500
f 3/1/1 22/2/1 52/3/1
f 36/4/2 44/3/2 15/2/2
f 43/3/3 50/4/3 24/1/3
f 51/3/4 45/2/4 38/1/4
f 31/4/5 37/3/5 8/2/5
f 1/1/6 4/5/6 5/6/6
f 2/4/7 6/7/7 5/8/7
f 3/1/8 7/9/8 5/6/8
f 8/2/9 11/10/9 12/11/9
f 9/1/10 13/5/10 12/6/10
f 10/1/11 14/9/11 12/6/11
f 15/2/12 18/10/12 19/11/12
f 16/2/13 20/12/13 19/11/13
f 17/2/14 21/12/14 19/11/14
f 22/2/15 25/12/15 26/11/15
f 23/3/16 27/13/16 26/14/16
f 24/1/17 28/9/17 26/6/17
f 29/4/18 32/7/18 33/8/18
f 30/4/19 34/15/19 33/8/19
f 31/4/20 35/15/20 33/8/20
f 36/4/21 39/15/21 40/8/21
f 37/3/22 41/16/22 40/14/22
f 38/1/23 42/5/23 40/6/23
f 43/3/24 46/13/24 47/14/24
f 44/3/25 48/16/25 47/14/25
f 45/2/26 49/10/26 47/11/26
f 50/4/27 53/7/27 54/8/27
f 51/3/28 55/16/28 54/14/28
f 52/3/29 56/13/29 54/14/29
f 1/1/30 8/2/30 14/12/30
f 4/15/31 14/9/31 10/1/31
f 23/3/32 25/16/32 6/7/32
f 6/5/33 25/12/33 22/2/33
f 29/4/34 35/15/34 7/9/34
f 35/15/35 31/4/35 1/1/35
f 9/1/36 15/2/36 21/12/36
f 21/12/37 17/2/37 10/1/37
f 37/3/38 39/13/38 11/10/38
f 39/15/39 36/4/39 9/1/39
f 24/1/40 27/5/40 20/12/40
f 27/13/41 23/3/41 17/2/41
f 44/3/42 46/13/42 18/10/42
f 46/13/43 43/3/43 16/2/43
f 24/1/44 50/4/44 56/15/44
f 28/10/45 56/13/45 52/3/45
f 30/4/46 38/1/46 41/9/46
f 41/16/47 37/3/47 31/4/47
f 52/3/48 55/16/48 32/7/48
f 55/16/49 51/3/49 30/4/49
f 38/1/50 45/2/50 48/12/50
f 42/7/51 48/16/51 44/3/51
f 51/3/52 53/13/52 49/10/52
f 53/7/53 50/4/53 43/3/53
f 2/4/54 10/1/54 17/2/54
f 29/4/1 3/1/1 52/3/1
f 9/1/2 36/4/2 15/2/2
f 16/2/3 43/3/3 24/1/3
f 30/4/4 51/3/4 38/1/4
f 1/1/5 31/4/5 8/2/5
f 7/9/55 1/1/55 5/6/55
f 4/15/56 2/4/56 5/8/56
f 6/5/57 3/1/57 5/6/57
f 14/12/58 8/2/58 12/11/58
f 11/9/59 9/1/59 12/6/59
f 13/5/60 10/1/60 12/6/60
f 21/12/61 15/2/61 19/11/61
f 18/10/62 16/2/62 19/11/62
f 20/10/63 17/2/63 19/11/63
f 28/10/64 22/2/64 26/11/64
f 25/16/65 23/3/65 26/14/65
f 27/5/66 24/1/66 26/6/66
f 35/15/67 29/4/67 33/8/67
f 32/7/68 30/4/68 33/8/68
f 34/7/69 31/4/69 33/8/69
f 42/7/70 36/4/70 40/8/70
f 39/13/71 37/3/71 40/14/71
f 41/9/72 38/1/72 40/6/72
f 49/16/73 43/3/73 47/14/73
f 46/13/74 44/3/74 47/14/74
f 48/12/75 45/2/75 47/11/75
f 56/15/76 50/4/76 54/8/76
f 53/13/77 51/3/77 54/14/77
f 55/16/78 52/3/78 54/14/78
f 4/5/30 1/1/30 14/12/30
f 2/4/31 4/15/31 10/1/31
f 2/4/32 23/3/32 6/7/32
f 3/1/33 6/5/33 22/2/33
f 3/1/34 29/4/34 7/9/34
f 7/9/35 35/15/35 1/1/35
f 13/5/36 9/1/36 21/12/36
f 13/5/37 21/12/37 10/1/37
f 8/2/38 37/3/38 11/10/38
f 11/9/39 39/15/39 9/1/39
f 16/2/40 24/1/40 20/12/40
f 20/10/41 27/13/41 17/2/41
f 15/2/42 44/3/42 18/10/42
f 18/10/43 46/13/43 16/2/43
f 28/9/44 24/1/44 56/15/44
f 22/2/45 28/10/45 52/3/45
f 34/15/46 30/4/46 41/9/46
f 34/7/47 41/16/47 31/4/47
f 29/4/48 52/3/48 32/7/48
f 32/7/49 55/16/49 30/4/49
f 42/5/50 38/1/50 48/12/50
f 36/4/51 42/7/51 44/3/51
f 45/2/52 51/3/52 49/10/52
f 49/16/53 53/7/53 43/3/53
f 23/3/54 2/4/54 17/2/54
