# Blender v2.76 (sub 0) OBJ File: ''
# www.blender.org
v 0.429289 0.429289 0.500000
v -0.429289 0.429289 0.500000
v -0.429289 -0.429289 0.500000
v 0.429289 -0.429289 -0.500000
v -0.429290 -0.429289 -0.500000
v -0.429289 0.429289 -0.500000
v -0.500000 -0.429289 -0.429289
v -0.500000 -0.429289 0.429289
v -0.500000 0.429289 0.429289
v -0.429289 -0.500000 0.429289
v -0.429290 -0.500000 -0.429289
v 0.429289 -0.500000 -0.429290
v 0.500000 -0.429289 0.429289
v 0.500000 -0.429289 -0.429290
v 0.500000 0.429289 -0.429289
v 0.500000 0.429289 0.429289
v 0.479289 0.479289 0.429289
v 0.470114 0.470114 0.470114
v 0.429289 0.500000 0.429289
v 0.429289 0.479289 0.479289
v 0.479289 0.429289 0.479289
v 0.479289 0.429289 -0.479289
v 0.470114 0.470114 -0.470114
v 0.429289 0.429289 -0.500000
v 0.429289 0.479289 -0.479289
v 0.429289 0.500000 -0.429289
v 0.479289 0.479289 -0.429289
v -0.479289 0.429289 -0.479289
v -0.470114 0.470114 -0.470114
v -0.500000 0.429289 -0.429289
v -0.479289 0.479289 -0.429289
v -0.429289 0.500000 -0.429289
v -0.429289 0.479289 -0.479289
v -0.429289 0.479289 0.479289
v -0.470114 0.470114 0.470114
v -0.429289 0.500000 0.429289
v -0.479289 0.479289 0.429289
v -0.479289 0.429289 0.479289
v 0.429290 -0.429289 0.500000
v 0.429290 -0.479289 0.479289
v 0.470114 -0.470114 0.470114
v 0.429289 -0.500000 0.429289
v 0.479289 -0.479289 0.429289
v 0.479290 -0.429289 0.479289
v 0.479289 -0.429289 -0.479290
v 0.470114 -0.470114 -0.470114
v 0.479289 -0.479289 -0.429290
v 0.429289 -0.479289 -0.479290
v -0.479290 -0.429289 -0.479289
v -0.470114 -0.470114 -0.470114
v -0.429290 -0.479289 -0.479289
v -0.479290 -0.479289 -0.429289
v -0.479289 -0.479289 0.429289
v -0.470114 -0.470114 0.470114
v -0.429289 -0.479289 0.479289
v -0.479289 -0.429289 0.479289
vt 0.647998 0.027983
vt 0.647998 0.472007
vt 0.351982 0.471991
vt 0.314667 0.528003
vt 0.314667 0.972046
vt 0.018660 0.972029
vt 0.685316 0.472016
vt 0.685330 0.027992
vt 0.981346 0.027997
vt 0.647992 0.972029
vt 0.351985 0.972046
vt 0.351985 0.528003
vt 0.981322 0.972065
vt 0.685306 0.972065
vt 0.685317 0.528041
vt 0.981334 0.528041
vt 0.982000 0.500057
vt 0.997179 0.504262
vt 0.018660 0.027971
vt 0.000008 0.026969
vt 0.002816 0.004207
vt 0.648667 0.000004
vt 0.663842 0.004218
vt 0.666665 0.527037
vt 0.669474 0.504275
vt 0.018660 0.528020
vt 0.000008 0.527018
vt 0.002816 0.504256
vt 0.314667 0.027954
vt 0.315335 -0.000049
vt 0.330519 0.004173
vt 0.017990 1.000007
vt 0.002816 0.995793
vt 0.981332 0.472021
vt 0.999985 0.473025
vt 0.997175 0.495788
vt 0.314667 0.471996
vt 0.333326 0.473001
vt 0.330519 0.495778
vt 0.666654 0.473007
vt 0.663851 0.495775
vt 0.018660 0.471980
vt 0.017990 0.499958
vt 0.002816 0.495744
vt 0.982013 0.000013
vt 0.997192 0.004218
vt 0.351982 0.027966
vt 0.333326 0.026966
vt 0.336129 0.004198
vt 0.647992 0.528020
vt 0.648662 0.500042
vt 0.663836 0.504256
vt 0.999975 0.973069
vt 0.997166 0.995832
vt 0.315335 0.500000
vt 0.330519 0.504221
vt 0.684639 1.000049
vt 0.669461 0.995845
vt 0.333326 0.526999
vt 0.336133 0.504222
vt 0.684649 0.500000
vt 0.669470 0.495795
vt 0.333326 0.973050
vt 0.330519 0.995827
vt 0.351317 1.000049
vt 0.336133 0.995827
vt 0.666677 0.026988
vt 0.669487 0.004225
vt 0.666644 0.973031
vt 0.663836 0.995793
vt 0.351313 0.499970
vt 0.336138 0.495756
vt 0.684649 0.500062
vt 0.017990 -0.000007
vt 0.000008 0.472982
vt 0.351306 -0.000027
vt 0.000008 0.973031
vt 0.666644 0.973079
vt 1.000008 0.026983
vt 0.315335 1.000049
vt 0.684662 0.000013
vt 0.648662 1.000007
vt 0.999995 0.527027
vt 0.333326 0.026950
vt 0.982000 0.500000
vt 0.666644 0.527017
vt 0.981991 1.000045
vn 0.179400 0.179400 0.967300
vn -0.179400 0.179400 0.967300
vn -0.179400 -0.179400 0.967300
vn 0.179400 -0.179400 -0.967300
vn -0.179400 -0.179400 -0.967300
vn -0.179400 0.179400 -0.967300
vn -0.967300 -0.179400 -0.179400
vn -0.967300 -0.179400 0.179400
vn -0.967300 0.179400 0.179400
vn -0.179400 -0.967300 0.179400
vn -0.179400 -0.967300 -0.179400
vn 0.179400 -0.967300 -0.179400
vn 0.967300 -0.179400 0.179400
vn 0.967300 -0.179400 -0.179400
vn 0.967300 0.179400 -0.179400
vn 0.967300 0.179400 0.179400
vn 0.699300 0.699300 0.147900
vn 0.577400 0.577400 0.577400
vn 0.179400 0.967300 0.179400
vn 0.147900 0.699300 0.699300
vn 0.699300 0.147900 0.699300
vn 0.699300 0.147900 -0.699300
vn 0.577400 0.577400 -0.577400
vn 0.179400 0.179400 -0.967300
vn 0.147900 0.699300 -0.699300
vn 0.179400 0.967300 -0.179400
vn 0.699300 0.699300 -0.147900
vn -0.699300 0.147900 -0.699300
vn -0.577400 0.577400 -0.577400
vn -0.967300 0.179400 -0.179400
vn -0.699300 0.699300 -0.147900
vn -0.179400 0.967300 -0.179400
vn -0.147900 0.699300 -0.699300
vn -0.147900 0.699300 0.699300
vn -0.577400 0.577400 0.577400
vn -0.179400 0.967300 0.179400
vn -0.699300 0.699300 0.147900
vn -0.699300 0.147900 0.699300
vn 0.179400 -0.179400 0.967300
vn 0.147900 -0.699300 0.699300
vn 0.577400 -0.577400 0.577300
vn 0.179400 -0.967300 0.179400
vn 0.699300 -0.699300 0.147900
vn 0.699300 -0.147900 0.699300
vn 0.699300 -0.147900 -0.699300
vn 0.577400 -0.577400 -0.577300
vn 0.699300 -0.699300 -0.147900
vn 0.147900 -0.699300 -0.699300
vn -0.699300 -0.147900 -0.699300
vn -0.577300 -0.577400 -0.577400
vn -0.147900 -0.699300 -0.699300
vn -0.699300 -0.699300 -0.147900
vn -0.699300 -0.699300 0.147900
vn -0.577400 -0.577400 0.577400
vn -0.147900 -0.699300 0.699300
vn -0.699300 -0.147900 0.699300
s 1
f 1/1/1 2/2/2 3/3/3
f 4/4/4 5/5/5 6/6/6
f 7/7/7 8/8/8 9/9/9
f 10/10/10 11/11/11 12/12/12
f 13/13/13 14/14/14 15/15/15
f 16/16/16 17/17/17 18/18/18
f 19/19/19 20/20/20 18/21/18
f 1/1/1 21/22/21 18/23/18
f 15/15/15 22/24/22 23/25/23
f 24/26/24 25/27/25 23/28/23
f 26/29/26 27/30/27 23/31/23
f 6/6/6 28/32/28 29/33/29
f 30/34/30 31/35/31 29/36/29
f 32/37/32 33/38/33 29/39/29
f 2/2/2 34/40/34 35/41/35
f 36/42/36 37/43/37 35/44/35
f 9/9/9 38/45/38 35/46/35
f 39/47/39 40/48/40 41/49/41
f 42/50/42 43/51/43 41/52/41
f 13/13/13 44/53/44 41/54/41
f 4/4/4 45/55/45 46/56/46
f 14/14/14 47/57/47 46/58/46
f 12/12/12 48/59/48 46/60/46
f 7/7/7 49/61/49 50/62/50
f 5/5/5 51/63/51 50/64/50
f 11/11/11 52/65/52 50/66/50
f 8/8/8 53/67/53 54/68/54
f 10/10/10 55/69/55 54/70/54
f 3/3/3 56/71/56 54/72/54
f 16/16/16 15/15/15 27/73/27
f 17/74/17 27/30/27 26/29/26
f 36/42/36 34/75/34 20/20/20
f 20/67/20 34/40/34 2/2/2
f 39/47/39 44/76/44 21/22/21
f 44/53/44 13/13/13 16/16/16
f 24/26/24 6/6/6 33/77/33
f 33/38/33 32/37/32 26/29/26
f 14/14/14 45/78/45 22/24/22
f 45/55/45 4/4/4 24/26/24
f 9/9/9 37/79/37 31/35/31
f 37/43/37 36/42/36 32/37/32
f 5/5/5 49/80/49 28/32/28
f 49/61/49 7/7/7 30/34/30
f 9/9/9 8/8/8 56/81/56
f 38/51/38 56/71/56 3/3/3
f 42/50/42 12/12/12 47/71/47
f 47/57/47 14/14/14 13/13/13
f 3/3/3 55/38/55 40/48/40
f 55/69/55 10/10/10 42/50/42
f 12/12/12 11/11/11 51/63/51
f 48/59/48 51/63/51 5/5/5
f 10/10/10 53/82/53 52/65/52
f 53/67/53 8/8/8 7/7/7
f 19/19/19 26/29/26 32/37/32
f 39/47/39 1/1/1 3/3/3
f 24/26/24 4/4/4 6/6/6
f 30/34/30 7/7/7 9/9/9
f 42/50/42 10/10/10 12/12/12
f 16/16/16 13/13/13 15/15/15
f 21/83/21 16/16/16 18/18/18
f 17/74/17 19/19/19 18/21/18
f 20/67/20 1/1/1 18/23/18
f 27/73/27 15/15/15 23/25/23
f 22/43/22 24/26/24 23/28/23
f 25/84/25 26/29/26 23/31/23
f 33/77/33 6/6/6 29/33/29
f 28/85/28 30/34/30 29/36/29
f 31/55/31 32/37/32 29/39/29
f 38/51/38 2/2/2 35/41/35
f 34/75/34 36/42/36 35/44/35
f 37/79/37 9/9/9 35/46/35
f 44/76/44 39/47/39 41/49/41
f 40/86/40 42/50/42 41/52/41
f 43/87/43 13/13/13 41/54/41
f 48/59/48 4/4/4 46/56/46
f 45/78/45 14/14/14 46/58/46
f 47/71/47 12/12/12 46/60/46
f 52/40/52 7/7/7 50/62/50
f 49/80/49 5/5/5 50/64/50
f 51/63/51 11/11/11 50/66/50
f 56/81/56 8/8/8 54/68/54
f 53/82/53 10/10/10 54/70/54
f 55/38/55 3/3/3 54/72/54
f 17/17/17 16/16/16 27/73/27
f 19/19/19 17/74/17 26/29/26
f 19/19/19 36/42/36 20/20/20
f 1/1/1 20/67/20 2/2/2
f 1/1/1 39/47/39 21/22/21
f 21/83/21 44/53/44 16/16/16
f 25/27/25 24/26/24 33/77/33
f 25/84/25 33/38/33 26/29/26
f 15/15/15 14/14/14 22/24/22
f 22/43/22 45/55/45 24/26/24
f 30/34/30 9/9/9 31/35/31
f 31/55/31 37/43/37 32/37/32
f 6/6/6 5/5/5 28/32/28
f 28/85/28 49/61/49 30/34/30
f 38/45/38 9/9/9 56/81/56
f 2/2/2 38/51/38 3/3/3
f 43/51/43 42/50/42 47/71/47
f 43/87/43 47/57/47 13/13/13
f 39/47/39 3/3/3 40/48/40
f 40/86/40 55/69/55 42/50/42
f 48/59/48 12/12/12 51/63/51
f 4/4/4 48/59/48 5/5/5
f 11/11/11 10/10/10 52/65/52
f 52/40/52 53/67/53 7/7/7
f 36/42/36 19/19/19 32/37/32
