# Blender v2.76 (sub 0) OBJ File: 'rubik.blend'
# www.blender.org
v -0.000004 0.000000 10.000000
v -0.000000 -0.000000 -9.999999
v -0.000003 -3.535533 7.071070
v -0.000002 5.000000 0.000000
v -0.000003 3.535533 7.071068
v -0.000001 3.535533 -7.071068
v -0.000000 -3.535533 -7.071068
v -10.000000 0.000000 -0.000002
v 10.000000 -0.000000 -0.000002
v 7.071068 -3.535533 -0.000001
v -7.071068 -3.535534 -0.000001
v -7.071068 3.535533 0.000000
v 7.071068 3.535534 -0.000001
v -0.000002 -4.619398 3.826835
v -0.000004 1.913418 9.238794
v -0.000000 4.619398 -3.826835
v -0.000000 -1.913417 -9.238795
v -7.071070 0.000000 7.071066
v 7.071067 -0.000000 -7.071068
v -0.000004 -1.913416 9.238796
v 0.000000 4.619397 3.826835
v -0.000001 -5.000000 0.000001
v -0.000001 1.913417 -9.238795
v -0.000000 -4.619398 -3.826835
v -7.071067 0.000000 -7.071068
v 7.071070 -0.000000 7.071066
v 9.238795 -1.913417 -0.000002
v 3.826835 -4.619397 0.000000
v 5.000000 -3.535533 -5.000000
v 5.000001 -3.535533 4.999999
v -9.238795 -1.913417 -0.000002
v -3.826835 -4.619398 -0.000001
v -5.000002 -3.535534 4.999999
v -5.000000 -3.535533 -5.000000
v -3.826835 4.619397 0.000000
v -9.238795 1.913417 -0.000002
v -5.000001 3.535533 4.999999
v -5.000000 3.535533 -5.000000
v 3.826835 4.619398 -0.000001
v 9.238795 1.913417 -0.000002
v 5.000000 3.535533 -5.000000
v 5.000002 3.535534 4.999999
v 6.532816 1.913417 6.532813
v 6.532815 1.913417 -6.532816
v 2.705981 4.619398 -2.705981
v -6.532815 1.913417 -6.532815
v -6.532816 1.913417 6.532813
v -2.705982 4.619397 2.705981
v -2.705981 -4.619398 -2.705981
v -2.705982 -4.619398 2.705981
v -6.532816 -1.913417 6.532813
v 2.705982 -4.619397 2.705981
v 2.705981 -4.619397 -2.705981
v 6.532815 -1.913417 -6.532815
v 6.532816 -1.913417 6.532813
v -6.532815 -1.913417 -6.532816
v -2.705981 4.619397 -2.705981
v 2.705982 4.619398 2.705981
vt 0.500043 0.375062
vt 0.500000 0.500000
vt 0.374967 0.499957
vt 0.750110 0.375148
vt 0.750066 0.500086
vt 0.625033 0.500043
vt 0.750196 0.125272
vt 0.750153 0.250210
vt 0.625120 0.250167
vt 0.249977 0.374975
vt 0.249933 0.499914
vt 0.124900 0.499870
vt 0.250063 0.125099
vt 0.250020 0.250037
vt 0.124987 0.249994
vt 0.500129 0.125185
vt 0.500086 0.250124
vt 0.375053 0.250080
vt 0.249890 0.624852
vt 0.249847 0.749790
vt 0.124814 0.749747
vt 0.499957 0.624938
vt 0.499914 0.749876
vt 0.374880 0.749833
vt 0.750023 0.625024
vt 0.749980 0.749962
vt 0.624947 0.749919
vt 0.875057 0.625067
vt 0.875013 0.750005
vt 0.875100 0.500129
vt 0.624990 0.624981
vt 0.624904 0.874857
vt 0.499871 0.874814
vt 0.749937 0.874900
vt 0.374923 0.624895
vt 0.124857 0.624809
vt -0.000219 0.749704
vt -0.000176 0.624765
vt 0.124771 0.874685
vt -0.000263 0.874642
vt 0.249804 0.874728
vt 0.375096 0.125142
vt 0.125030 0.125056
vt -0.000047 0.249951
vt 0.125073 0.000118
vt -0.000003 0.125013
vt 0.124943 0.374932
vt -0.000133 0.499827
vt -0.000090 0.374889
vt 0.875229 0.125315
vt 0.875186 0.250253
vt 0.625163 0.125228
vt 0.625076 0.375105
vt 0.875143 0.375191
vt 0.375010 0.375019
vt 0.374837 0.874771
vt 0.874970 0.874944
vt 0.249761 0.999666
vt 1.000176 0.375234
vt 1.000133 0.500172
vt 1.000262 0.125358
vt 1.000219 0.250296
vt 1.000090 0.625110
vt 1.000047 0.750049
vt 0.375139 0.000204
vt 0.500172 0.000247
vt 0.250106 0.000161
vt 0.875272 0.000377
vt 1.000306 0.000420
vt 0.625206 0.000290
vt 0.750239 0.000333
vt 1.000004 0.874987
vt 0.874927 0.999882
vt 0.374794 0.999709
vt 0.124727 0.999623
vt 0.624861 0.999795
vt 0.499827 0.999752
vt -0.000306 0.999580
vt 0.749894 0.999839
vn 0.000000 0.577700 0.816200
vn 0.000000 0.000000 1.000000
vn 0.707100 0.000000 0.707100
vn -0.816200 0.577700 0.000000
vn -1.000000 0.000000 0.000000
vn -0.707100 0.000000 0.707100
vn -0.235500 0.971900 0.000000
vn -0.493900 0.869500 0.000000
vn -0.349200 0.869500 0.349200
vn 0.816200 0.577700 0.000000
vn 1.000000 0.000000 0.000000
vn 0.707100 0.000000 -0.707100
vn 0.235500 0.971900 0.000000
vn 0.493900 0.869500 0.000000
vn 0.349200 0.869500 -0.349200
vn 0.000000 0.971900 0.235500
vn 0.000000 0.869500 0.493900
vn 0.349200 0.869500 0.349200
vn 0.816200 -0.577700 0.000000
vn 0.493900 -0.869500 0.000000
vn 0.349200 -0.869500 -0.349200
vn 0.000000 -0.577700 0.816200
vn 0.000000 -0.869500 0.493900
vn 0.349200 -0.869500 0.349200
vn -0.816200 -0.577700 0.000000
vn -0.493900 -0.869500 0.000000
vn -0.349200 -0.869500 0.349200
vn -0.577200 -0.577700 -0.577200
vn -0.349200 -0.869500 -0.349200
vn -0.707100 0.000000 -0.707100
vn -0.577200 -0.577700 0.577200
vn -0.166500 -0.971900 0.166500
vn 0.000000 -0.971900 0.235500
vn -0.235500 -0.971900 0.000000
vn 0.577200 -0.577700 0.577200
vn 0.577200 -0.577700 -0.577200
vn 0.000000 -0.869500 -0.493900
vn 0.000000 -0.577700 -0.816200
vn 0.166500 -0.971900 -0.166500
vn 0.000000 -0.971900 -0.235500
vn 0.235500 -0.971900 0.000000
vn 0.166500 0.971900 0.166500
vn 0.166500 0.971900 -0.166500
vn 0.000000 0.869500 -0.493900
vn 0.000000 1.000000 0.000000
vn 0.000000 0.971900 -0.235500
vn 0.577200 0.577700 -0.577200
vn 0.000000 0.000000 -1.000000
vn 0.000000 0.577700 -0.816200
vn -0.166500 0.971900 -0.166500
vn -0.349200 0.869500 -0.349200
vn -0.166500 0.971900 0.166500
vn -0.577200 0.577700 0.577200
vn -0.577200 0.577700 -0.577200
vn 0.577200 0.577700 0.577200
vn 0.166500 -0.971900 0.166500
vn -0.166500 -0.971900 -0.166500
vn 0.000000 -1.000000 0.000000
s 1
f 17/1/1 2/2/2 25/3/3
f 27/4/4 9/5/5 19/6/6
f 28/7/7 10/8/8 29/9/9
f 31/10/10 8/11/11 18/12/12
f 32/13/13 11/14/14 33/15/15
f 24/16/16 7/17/17 34/18/18
f 36/19/19 12/20/20 37/21/21
f 23/22/22 6/23/23 38/24/24
f 40/25/25 13/26/26 41/27/27
f 43/28/28 42/29/29 13/26/26
f 26/30/30 43/28/28 40/25/25
f 44/31/31 41/27/27 6/23/23
f 19/6/6 44/31/31 23/22/22
f 9/5/5 40/25/25 44/31/31
f 41/27/27 45/32/32 16/33/33
f 13/26/26 39/34/34 45/32/32
f 46/35/35 38/24/24 12/20/20
f 25/3/3 46/35/35 36/19/19
f 2/2/2 23/22/22 46/35/35
f 47/36/36 37/21/21 5/37/37
f 18/12/12 47/36/36 15/38/38
f 8/11/11 36/19/19 47/36/36
f 37/21/21 48/39/39 21/40/40
f 12/20/20 35/41/41 48/39/39
f 49/42/42 34/18/18 11/14/14
f 50/43/43 33/15/15 3/44/44
f 22/45/45 50/43/43 14/46/46
f 51/47/47 18/12/12 1/48/48
f 33/15/15 51/47/47 20/49/49
f 11/14/14 31/10/10 51/47/47
f 52/50/50 30/51/51 10/8/8
f 53/52/52 29/9/9 7/17/17
f 54/53/53 19/6/6 2/2/2
f 29/9/9 54/53/53 17/1/1
f 10/8/8 27/4/4 54/53/53
f 55/54/54 26/30/30 9/5/5
f 30/51/51 55/54/54 27/4/4
f 56/55/55 25/3/3 8/11/11
f 34/18/18 56/55/55 31/10/10
f 7/17/17 17/1/1 56/55/55
f 38/24/24 57/56/56 35/41/41
f 6/23/23 16/33/33 57/56/56
f 42/29/29 58/57/57 39/34/34
f 56/55/55 17/1/1 25/3/3
f 54/53/53 27/4/4 19/6/6
f 53/52/52 28/7/7 29/9/9
f 51/47/47 31/10/10 18/12/12
f 50/43/43 32/13/13 33/15/15
f 49/42/42 24/16/16 34/18/18
f 47/36/36 36/19/19 37/21/21
f 46/35/35 23/22/22 38/24/24
f 44/31/31 40/25/25 41/27/27
f 40/25/25 43/28/28 13/26/26
f 9/5/5 26/30/30 40/25/25
f 23/22/22 44/31/31 6/23/23
f 2/2/2 19/6/6 23/22/22
f 19/6/6 9/5/5 44/31/31
f 6/23/23 41/27/27 16/33/33
f 41/27/27 13/26/26 45/32/32
f 36/19/19 46/35/35 12/20/20
f 8/11/11 25/3/3 36/19/19
f 25/3/3 2/2/2 46/35/35
f 15/38/38 47/36/36 5/37/37
f 1/48/48 18/12/12 15/38/38
f 18/12/12 8/11/11 47/36/36
f 5/37/37 37/21/21 21/40/40
f 37/21/21 12/20/20 48/39/39
f 32/13/13 49/42/42 11/14/14
f 14/46/46 50/43/43 3/44/44
f 20/49/49 51/47/47 1/48/48
f 3/44/44 33/15/15 20/49/49
f 33/15/15 11/14/14 51/47/47
f 28/7/7 52/50/50 10/8/8
f 24/16/16 53/52/52 7/17/17
f 17/1/1 54/53/53 2/2/2
f 7/17/17 29/9/9 17/1/1
f 29/9/9 10/8/8 54/53/53
f 27/4/4 55/54/54 9/5/5
f 10/8/8 30/51/51 27/4/4
f 31/10/10 56/55/55 8/11/11
f 11/14/14 34/18/18 31/10/10
f 34/18/18 7/17/17 56/55/55
f 35/41/41 57/56/56 4/58/58
f 12/20/20 38/24/24 35/41/41
f 38/24/24 6/23/23 57/56/56
f 13/26/26 42/29/29 39/34/34
f 20/59/49 1/60/48 26/30/30
f 14/61/46 3/62/44 30/51/51
f 15/63/38 5/64/37 42/29/29
f 1/60/48 15/63/38 43/28/28
f 22/65/45 49/42/42 32/13/13
f 22/66/45 24/16/16 49/42/42
f 22/67/45 32/13/13 50/43/43
f 22/68/45 52/50/50 28/7/7
f 22/69/45 14/61/46 52/50/50
f 22/70/45 53/52/52 24/16/16
f 22/71/45 28/7/7 53/52/52
f 3/62/44 20/59/49 55/54/54
f 5/64/37 21/72/40 58/57/57
f 58/57/57 21/72/40 4/73/58
f 57/56/56 16/33/33 4/74/58
f 55/54/54 20/59/49 26/30/30
f 52/50/50 14/61/46 30/51/51
f 48/39/39 35/41/41 4/75/58
f 45/32/32 39/34/34 4/76/58
f 43/28/28 15/63/38 42/29/29
f 26/30/30 1/60/48 43/28/28
f 16/33/33 45/32/32 4/77/58
f 21/40/40 48/39/39 4/78/58
f 30/51/51 3/62/44 55/54/54
f 39/34/34 58/57/57 4/79/58
f 42/29/29 5/64/37 58/57/57
